<svg xmlns="http://www.w3.org/2000/svg"  viewBox="0 0 100 100" width="500px" height="500px"><path fill="#c7ede6" d="M87.215,56.71C88.35,54.555,89,52.105,89,49.5c0-6.621-4.159-12.257-10.001-14.478	C78.999,35.015,79,35.008,79,35c0-11.598-9.402-21-21-21c-9.784,0-17.981,6.701-20.313,15.757C36.211,29.272,34.638,29,33,29	c-7.692,0-14.023,5.793-14.89,13.252C12.906,43.353,9,47.969,9,53.5C9,59.851,14.149,65,20.5,65c0.177,0,0.352-0.012,0.526-0.022	C21.022,65.153,21,65.324,21,65.5C21,76.822,30.178,86,41.5,86c6.437,0,12.175-2.972,15.934-7.614C59.612,80.611,62.64,82,66,82	c4.65,0,8.674-2.65,10.666-6.518C77.718,75.817,78.837,76,80,76c6.075,0,11-4.925,11-11C91,61.689,89.53,58.727,87.215,56.71z"/><path fill="#fdfcef" d="M36.5,35.5c0,0,1.567,0,3.5,0s3.5-1.567,3.5-3.5c0-1.781-1.335-3.234-3.055-3.455	C40.473,28.366,40.5,28.187,40.5,28c0-1.933-1.567-3.5-3.5-3.5c-1.032,0-1.95,0.455-2.59,1.165c-0.384-1.808-1.987-3.165-3.91-3.165	c-2.209,0-4,1.791-4,4c0,0.191,0.03,0.374,0.056,0.558C26.128,26.714,25.592,26.5,25,26.5c-1.228,0-2.245,0.887-2.455,2.055	C22.366,28.527,22.187,28.5,22,28.5c-1.933,0-3.5,1.567-3.5,3.5s1.567,3.5,3.5,3.5s7.5,0,7.5,0V36h7V35.5z"/><path fill="#472b29" d="M38.25,31C38.112,31,38,30.888,38,30.75c0-1.223,0.995-2.218,2.218-2.218	c0.034,0.009,0.737-0.001,1.244,0.136c0.133,0.036,0.212,0.173,0.176,0.306c-0.036,0.134-0.173,0.213-0.306,0.176	c-0.444-0.12-1.1-0.12-1.113-0.118c-0.948,0-1.719,0.771-1.719,1.718C38.5,30.888,38.388,31,38.25,31z"/><circle cx="31.5" cy="35.5" r=".5" fill="#472b29"/><path fill="#472b29" d="M40,36h-3.5c-0.276,0-0.5-0.224-0.5-0.5s0.224-0.5,0.5-0.5H40c1.654,0,3-1.346,3-3	c0-1.496-1.125-2.768-2.618-2.959c-0.134-0.018-0.255-0.088-0.336-0.196s-0.115-0.244-0.094-0.377C39.975,28.314,40,28.16,40,28	c0-1.654-1.346-3-3-3c-0.85,0-1.638,0.355-2.219,1c-0.125,0.139-0.321,0.198-0.5,0.148c-0.182-0.049-0.321-0.195-0.36-0.379	C33.58,24.165,32.141,23,30.5,23c-1.93,0-3.5,1.57-3.5,3.5c0,0.143,0.021,0.28,0.041,0.418c0.029,0.203-0.063,0.438-0.242,0.54	s-0.396,0.118-0.556-0.01C25.878,27.155,25.449,27,25,27c-0.966,0-1.792,0.691-1.963,1.644c-0.048,0.267-0.296,0.446-0.569,0.405	C22.314,29.025,22.16,29,22,29c-1.654,0-3,1.346-3,3s1.346,3,3,3h7.5c0.276,0,0.5,0.224,0.5,0.5S29.776,36,29.5,36H22	c-2.206,0-4-1.794-4-4s1.794-4,4-4c0.059,0,0.116,0.002,0.174,0.006C22.588,26.82,23.711,26,25,26c0.349,0,0.689,0.061,1.011,0.18	C26.176,23.847,28.126,22,30.5,22c1.831,0,3.466,1.127,4.153,2.774C35.333,24.276,36.155,24,37,24c2.206,0,4,1.794,4,4	c0,0.048-0.001,0.095-0.004,0.142C42.739,28.59,44,30.169,44,32C44,34.206,42.206,36,40,36z"/><path fill="#472b29" d="M34.5,35c-0.159,0-0.841,0-1,0c-0.276,0-0.5,0.224-0.5,0.5s0.224,0.5,0.5,0.5c0.159,0,0.841,0,1,0	c0.276,0,0.5-0.224,0.5-0.5S34.776,35,34.5,35z"/><path fill="#fff" d="M14.405,60H4.5C4.224,60,4,59.776,4,59.5S4.224,59,4.5,59h9.905c0.276,0,0.5,0.224,0.5,0.5	S14.682,60,14.405,60z"/><path fill="#fff" d="M17.5,60h-1c-0.276,0-0.5-0.224-0.5-0.5s0.224-0.5,0.5-0.5h1c0.276,0,0.5,0.224,0.5,0.5	S17.777,60,17.5,60z"/><path fill="#fff" d="M22.491,62H8.5C8.224,62,8,61.776,8,61.5S8.224,61,8.5,61h13.991c0.276,0,0.5,0.224,0.5,0.5	S22.767,62,22.491,62z"/><path fill="#f1bc19" d="M36.546,29h28.409c3.753,0,6.796,3.043,6.796,6.796v28.409c0,3.753-3.043,6.796-6.796,6.796H36.546	c-3.753,0-6.796-3.043-6.796-6.796V35.796C29.75,32.043,32.793,29,36.546,29z"/><path fill="#fff" d="M17.5,55c-0.177,0-0.823,0-1,0c-0.276,0-0.5,0.224-0.5,0.5s0.224,0.5,0.5,0.5c0.177,0,0.823,0,1,0	c0.276,0,0.5-0.224,0.5-0.5S17.776,55,17.5,55z"/><path fill="#fff" d="M17.5,57c-0.177,0-4.823,0-5,0c-0.276,0-0.5,0.224-0.5,0.5s0.224,0.5,0.5,0.5c0.177,0,4.823,0,5,0	c0.276,0,0.5-0.224,0.5-0.5S17.776,57,17.5,57z"/><path fill="#fff" d="M22.5,59c-0.177,0-2.823,0-3,0c-0.276,0-0.5,0.224-0.5,0.5s0.224,0.5,0.5,0.5c0.177,0,2.823,0,3,0	c0.276,0,0.5-0.224,0.5-0.5S22.776,59,22.5,59z"/><path fill="#fff" d="M86.5,45h-10c-0.276,0-0.5-0.224-0.5-0.5s0.224-0.5,0.5-0.5h10c0.276,0,0.5,0.224,0.5,0.5	S86.776,45,86.5,45z"/><path fill="#fff" d="M95.5,47h-10c-0.276,0-0.5-0.224-0.5-0.5s0.224-0.5,0.5-0.5h10c0.276,0,0.5,0.224,0.5,0.5	S95.777,47,95.5,47z"/><path fill="#fff" d="M83.5,47h-1c-0.276,0-0.5-0.224-0.5-0.5s0.224-0.5,0.5-0.5h1c0.276,0,0.5,0.224,0.5,0.5	S83.776,47,83.5,47z"/><path fill="#fff" d="M80.375,47H78.5c-0.276,0-0.5-0.224-0.5-0.5s0.224-0.5,0.5-0.5h1.875c0.276,0,0.5,0.224,0.5,0.5	S80.651,47,80.375,47z"/><path fill="#fff" d="M89.5,43h-5c-0.276,0-0.5-0.224-0.5-0.5s0.224-0.5,0.5-0.5h5c0.276,0,0.5,0.224,0.5,0.5	S89.777,43,89.5,43z"/><path fill="#fff" d="M86.5,49h-2c-0.276,0-0.5-0.224-0.5-0.5s0.224-0.5,0.5-0.5h2c0.276,0,0.5,0.224,0.5,0.5	S86.776,49,86.5,49z"/><path fill="#472b29" d="M65,29.4c3.639,0,6.6,2.961,6.6,6.6v28c0,3.639-2.961,6.6-6.6,6.6H37c-3.639,0-6.6-2.961-6.6-6.6V36	c0-3.639,2.961-6.6,6.6-6.6H65 M65,28H37c-4.418,0-8,3.582-8,8v28c0,4.418,3.582,8,8,8h28c4.418,0,8-3.582,8-8V36	C73,31.582,69.418,28,65,28L65,28z"/><path fill="#472b29" d="M69.5,41c-0.276,0-0.5-0.224-0.5-0.5v-4c0-2.481-2.019-4.5-4.5-4.5h-11c-0.276,0-0.5-0.224-0.5-0.5	s0.224-0.5,0.5-0.5h11c3.032,0,5.5,2.467,5.5,5.5v4C70,40.776,69.776,41,69.5,41z"/><path fill="#472b29" d="M69.5,57c-0.276,0-0.5-0.224-0.5-0.5v-9.016c0-0.276,0.224-0.5,0.5-0.5s0.5,0.224,0.5,0.5V56.5	C70,56.776,69.776,57,69.5,57z"/><path fill="#472b29" d="M64.5,69h-27c-3.032,0-5.5-2.467-5.5-5.5v-27c0-3.033,2.468-5.5,5.5-5.5h7c0.276,0,0.5,0.224,0.5,0.5	S44.776,32,44.5,32h-7c-2.481,0-4.5,2.019-4.5,4.5v27c0,2.481,2.019,4.5,4.5,4.5h27c2.481,0,4.5-2.019,4.5-4.5v-4	c0-0.276,0.224-0.5,0.5-0.5s0.5,0.224,0.5,0.5v4C70,66.533,67.532,69,64.5,69z"/><path fill="#472b29" d="M50.5,32h-3c-0.276,0-0.5-0.224-0.5-0.5s0.224-0.5,0.5-0.5h3c0.276,0,0.5,0.224,0.5,0.5	S50.776,32,50.5,32z"/><path fill="#fdfcef" d="M60.5,44.5c0-4.971-4.253-9-9.5-9s-9.5,4.029-9.5,9c0,2.645,1.206,4.845,3.125,6.383	c1.85,1.483,2.875,3.765,2.875,6.136v0.245c0,0.552,0.448,1,1,1h5c0.552,0,1-0.448,1-1v-0.245c0-2.371,1.026-4.653,2.875-6.136	C59.294,49.345,60.5,47.145,60.5,44.5z"/><path fill="#fdfcef" d="M53.79,61.25h-5.58c-0.267,0-0.484-0.216-0.484-0.484v-0.783c0-0.267,0.216-0.484,0.484-0.484h5.58	c0.267,0,0.484,0.216,0.484,0.484v0.783C54.273,61.033,54.057,61.25,53.79,61.25z"/><path fill="#fdfcef" d="M53.067,63h-4.133c-0.28,0-0.507-0.227-0.507-0.507V61.25h5.148v1.243	C53.574,62.773,53.347,63,53.067,63z"/><path fill="#fdfcef" d="M52.316,64.749h-2.631c-0.309,0-0.559-0.25-0.559-0.559V63h3.749v1.19	C52.875,64.499,52.624,64.749,52.316,64.749z"/><path fill="none" stroke="#472b29" stroke-linecap="round" stroke-linejoin="round" stroke-miterlimit="10" stroke-width=".5" d="M60.5,44.5c0-4.971-4.253-9-9.5-9s-9.5,4.029-9.5,9c0,2.645,1.206,4.845,3.125,6.383c1.85,1.483,2.875,3.765,2.875,6.136v0.245	c0,0.552,0.448,1,1,1h5c0.552,0,1-0.448,1-1v-0.245c0-2.371,1.026-4.653,2.875-6.136C59.294,49.345,60.5,47.145,60.5,44.5z"/><path fill="none" stroke="#472b29" stroke-linecap="round" stroke-linejoin="round" stroke-miterlimit="10" stroke-width=".5" d="M53.79,61.25h-5.58c-0.267,0-0.484-0.216-0.484-0.484v-0.783c0-0.267,0.216-0.484,0.484-0.484h5.58c0.267,0,0.484,0.216,0.484,0.484	v0.783C54.273,61.033,54.057,61.25,53.79,61.25z"/><path fill="none" stroke="#472b29" stroke-linecap="round" stroke-linejoin="round" stroke-miterlimit="10" stroke-width=".5" d="M53.067,63h-4.133c-0.28,0-0.507-0.227-0.507-0.507V61.25h5.148v1.243C53.574,62.773,53.347,63,53.067,63z"/><path fill="none" stroke="#472b29" stroke-linecap="round" stroke-linejoin="round" stroke-miterlimit="10" stroke-width=".5" d="M52.316,64.749h-2.631c-0.309,0-0.559-0.25-0.559-0.559V63h3.749v1.19C52.875,64.499,52.624,64.749,52.316,64.749z"/><path fill="#f1bc19" d="M55.25,45.749h-8.5c-0.138,0-0.25,0.112-0.25,0.25v0.997c0,0.138,0.112,0.25,0.25,0.25h3.502	c0,0.001-0.001,0.001-0.001,0.002V56.5c0,0.138,0.112,0.25,0.25,0.25h0.997c0.138,0,0.25-0.112,0.25-0.25v-9.252	c0-0.001-0.001-0.001-0.001-0.002h3.502c0.138,0,0.25-0.112,0.25-0.25v-0.997C55.5,45.861,55.388,45.749,55.25,45.749z"/><path fill="none" stroke="#472b29" stroke-linecap="round" stroke-linejoin="round" stroke-miterlimit="10" stroke-width=".5" d="M55.25,45.749h-8.5c-0.138,0-0.25,0.112-0.25,0.25v0.997c0,0.138,0.112,0.25,0.25,0.25h3.502c0,0.001-0.001,0.001-0.001,0.002V56.5	c0,0.138,0.112,0.25,0.25,0.25h0.997c0.138,0,0.25-0.112,0.25-0.25v-9.252c0-0.001-0.001-0.001-0.001-0.002h3.502	c0.138,0,0.25-0.112,0.25-0.25v-0.997C55.5,45.861,55.388,45.749,55.25,45.749z"/><path fill="#fdfcef" d="M83.875,75.5c0,0,3.64,0,6.125,0s4.5-2.015,4.5-4.5c0-2.333-1.782-4.229-4.055-4.455	C90.467,66.364,90.5,66.187,90.5,66c0-2.485-2.015-4.5-4.5-4.5c-1.438,0-2.703,0.686-3.527,1.736C82.333,60.6,80.171,58.5,77.5,58.5	c-2.761,0-5,2.239-5,5c0,0.446,0.077,0.87,0.187,1.282C72.045,64.005,71.086,63.5,70,63.5c-1.781,0-3.234,1.335-3.455,3.055	C66.364,66.533,66.187,66.5,66,66.5c-2.485,0-4.5,2.015-4.5,4.5s2.015,4.5,4.5,4.5s9.5,0,9.5,0h5.375V76h3V75.5z"/><path fill="#472b29" d="M77.5,58c-3.033,0-5.5,2.467-5.5,5.5c0,0.016,0,0.031,0,0.047C71.398,63.192,70.71,63,70,63	c-1.831,0-3.411,1.261-3.858,3.005C66.095,66.002,66.048,66,66,66c-2.757,0-5,2.243-5,5s2.243,5,5,5h14.875	c0.276,0,0.5-0.224,0.5-0.5s-0.224-0.5-0.5-0.5H66c-2.206,0-4-1.794-4-4s1.794-4,4-4c0.117,0,0.23,0.017,0.343,0.032l0.141,0.019	c0.021,0.003,0.041,0.004,0.062,0.004c0.246,0,0.462-0.185,0.495-0.437C67.232,65.125,68.504,64,70,64	c0.885,0,1.723,0.401,2.301,1.1c0.098,0.118,0.241,0.182,0.386,0.182c0.078,0,0.156-0.018,0.228-0.056	c0.209-0.107,0.314-0.346,0.254-0.573C73.054,64.218,73,63.852,73,63.5c0-2.481,2.019-4.5,4.5-4.5c2.381,0,4.347,1.872,4.474,4.263	c0.011,0.208,0.15,0.387,0.349,0.45c0.05,0.016,0.101,0.024,0.152,0.024c0.15,0,0.296-0.069,0.392-0.192	C83.638,62.563,84.779,62,86,62c2.206,0,4,1.794,4,4c0,0.117-0.017,0.23-0.032,0.343l-0.019,0.141	c-0.016,0.134,0.022,0.268,0.106,0.373s0.207,0.172,0.34,0.185C92.451,67.247,94,68.949,94,71c0,2.206-1.794,4-4,4h-6.125	c-0.276,0-0.5,0.224-0.5,0.5s0.224,0.5,0.5,0.5H90c2.757,0,5-2.243,5-5c0-2.397-1.689-4.413-4.003-4.877	C90.999,66.082,91,66.041,91,66c0-2.757-2.243-5-5-5c-1.176,0-2.293,0.416-3.183,1.164C82.219,59.76,80.055,58,77.5,58L77.5,58z"/><path fill="#472b29" d="M76,65c-1.403,0-2.609,0.999-2.913,2.341C72.72,67.119,72.301,67,71.875,67	c-1.202,0-2.198,0.897-2.353,2.068C69.319,69.022,69.126,69,68.938,69c-1.529,0-2.811,1.2-2.918,2.732	C66.01,71.87,66.114,71.99,66.251,72c0.006,0,0.012,0,0.018,0c0.13,0,0.24-0.101,0.249-0.232c0.089-1.271,1.151-2.268,2.419-2.268	c0.229,0,0.47,0.042,0.738,0.127c0.022,0.007,0.045,0.01,0.067,0.01c0.055,0,0.11-0.02,0.156-0.054	C69.962,69.537,70,69.455,70,69.375c0-1.034,0.841-1.875,1.875-1.875c0.447,0,0.885,0.168,1.231,0.473	c0.047,0.041,0.106,0.063,0.165,0.063c0.032,0,0.063-0.006,0.093-0.019c0.088-0.035,0.148-0.117,0.155-0.212	C73.623,66.512,74.712,65.5,76,65.5c0.208,0,0.425,0.034,0.682,0.107c0.023,0.007,0.047,0.01,0.07,0.01	c0.109,0,0.207-0.073,0.239-0.182c0.038-0.133-0.039-0.271-0.172-0.309C76.517,65.04,76.256,65,76,65L76,65z"/><path fill="#472b29" d="M89.883,66.5c-1.326,0-2.508,0.897-2.874,2.182c-0.038,0.133,0.039,0.271,0.172,0.309	C87.205,68.997,87.228,69,87.25,69c0.109,0,0.209-0.072,0.24-0.182C87.795,67.748,88.779,67,89.883,67	c0.117,0,0.23,0.014,0.342,0.029c0.012,0.002,0.023,0.003,0.035,0.003c0.121,0,0.229-0.092,0.246-0.217	c0.019-0.137-0.077-0.263-0.214-0.281C90.158,66.516,90.022,66.5,89.883,66.5L89.883,66.5z"/></svg>